<svg xmlns="http://www.w3.org/2000/svg" viewBox="0 0 1098.74 446.46"><title>logo-iteo-utenprikk</title><g id="Layer_2" data-name="Layer 2"><g id="Layer_1-2" data-name="Layer 1"><path d="M0,439.3V81.56H78V439.3Z"/><path d="M269,439.3c-55.81,0-84.43-26.47-84.43-78.7V139.51h-55V81.56h55V0h78V81.56h82.74v57.95H262.58v203.2c0,30.05,10.73,35.11,37.92,35.11h42V439.3Z"/><path d="M542.09,446.46c-106.6,0-168.85-87.29-168.85-186s60.82-186,167.42-186,176.72,86.57,166,211.07H451.23c3.58,65.1,41.5,103,95.87,103,46.51,0,66.54-31.48,75.13-60.1h78C685.19,399.24,629.38,446.46,542.09,446.46ZM451.94,227.52H628.67c-5-58-35.78-95.16-88-95.16S457,169.56,451.94,227.52Z"/><path d="M923.45,446.46c-108.75,0-175.29-89.44-175.29-186s66.54-186,175.29-186,175.29,89.43,175.29,186S1032.21,446.46,923.45,446.46Zm0-58c60.1,0,93.73-52.23,93.73-128.07,0-76.56-33.63-128.07-93.73-128.07-59.38,0-93,51.51-93,128.07C830.44,336.27,864.07,388.5,923.45,388.5Z"/></g></g></svg>